HIERARCHY
ROOT Hips
{
	OFFSET 0.00000 0.00000 0.00000
	CHANNELS 6 Xposition Yposition Zposition Zrotation Yrotation Xrotation 
	JOINT LHipJoint
	{
		OFFSET 0 0 0
		CHANNELS 3 Zrotation Yrotation Xrotation
		JOINT LeftHip
		{
			OFFSET 1.53139 -1.83434 0.76626
			CHANNELS 3 Zrotation Yrotation Xrotation
			JOINT LeftKnee
			{
				OFFSET 2.56112 -7.03663 0.00000
				CHANNELS 3 Zrotation Yrotation Xrotation
				JOINT LeftAnkle
				{
					OFFSET 2.59983 -7.14299 0.00000
					CHANNELS 3 Zrotation Yrotation Xrotation
					JOINT LeftToe
					{
						OFFSET 0.13742 -0.37757 2.00054
						CHANNELS 3 Zrotation Yrotation Xrotation
						End Site
						{
							OFFSET 0.00000 -0.00000 1.02897
						}
					}
				}
			}
		}
	}
	JOINT RHipJoint
	{
		OFFSET 0 0 0
		CHANNELS 3 Zrotation Yrotation Xrotation
		JOINT RightHip
		{
			OFFSET -1.40122 -1.83435 0.76627
			CHANNELS 3 Zrotation Yrotation Xrotation
			JOINT RightKnee
			{
				OFFSET -2.54052 -6.98003 0.00000
				CHANNELS 3 Zrotation Yrotation Xrotation
				JOINT RightAnkle
				{
					OFFSET -2.63179 -7.23079 0.00000
					CHANNELS 3 Zrotation Yrotation Xrotation
					JOINT RightToe
					{
						OFFSET -0.24131 -0.66299 2.03908
						CHANNELS 3 Zrotation Yrotation Xrotation
						End Site
						{
							OFFSET -0.00000 -0.00000 1.07391
						}
					}
				}
			}
		}
	}
	JOINT lowerback
	{
		OFFSET 0 0 0
		CHANNELS 3 Zrotation Yrotation Xrotation
		JOINT Chest
		{
			OFFSET 0.01174 2.10302 -0.29778
			CHANNELS 3 Zrotation Yrotation Xrotation
			JOINT Chest2
			{
				OFFSET 0.00772 2.13227 -0.01247
				CHANNELS 3 Zrotation Yrotation Xrotation
				JOINT lowerneck
				{
					OFFSET 0 0 0
					CHANNELS 3 Zrotation Yrotation Xrotation
					JOINT Neck
					{
						OFFSET -0.09219 1.60848 0.31481
						CHANNELS 3 Zrotation Yrotation Xrotation
						JOINT Head
						{
							OFFSET 0.13974 1.65456 -0.31134
							CHANNELS 3 Zrotation Yrotation Xrotation
							End Site
							{
								OFFSET 0.04742 1.69515 -0.14578
							}
						}
					}
				}
				JOINT LeftCollar
				{
					OFFSET 0 0 0
					CHANNELS 3 Zrotation Yrotation Xrotation
					JOINT LeftShoulder
					{
						OFFSET 3.24909 1.02882 -0.23993
CHANNELS 3 Zrotation Xrotation Yrotation
						JOINT LeftElbow
						{
OFFSET 0 -5.329550 -0.000000
CHANNELS 3 Zrotation Xrotation Yrotation
							JOINT LeftWrist
							{
OFFSET 0 -3.692320 -0.000000
CHANNELS 3 Zrotation Xrotation Yrotation
								JOINT lhand
								{
									OFFSET 0 0 0
CHANNELS 3 Zrotation Xrotation Yrotation
									JOINT LFingers
									{
OFFSET 0 -0.536600 -0.000000
CHANNELS 3 Zrotation Xrotation Yrotation
										End Site
										{
OFFSET 0 -0.432620 -0.000000
										}
									}
								}
								JOINT LThumb
								{
OFFSET 0 0.000000 0.000000
CHANNELS 3 Zrotation Xrotation Yrotation
									End Site
									{
OFFSET 0 -0.439220 0.439220
									}
								}
							}
						}
					}
				}
				JOINT RightCollar
				{
					OFFSET 0 0 0
					CHANNELS 3 Zrotation Yrotation Xrotation
					JOINT RightShoulder
					{
						OFFSET -3.21387 0.93002 -0.34594
CHANNELS 3 Zrotation Xrotation Yrotation
						JOINT RightElbow
						{
OFFSET 0 -5.234310 0.000000
CHANNELS 3 Zrotation Xrotation Yrotation
							JOINT RightWrist
							{
OFFSET 0 -3.553010 -0.000000
CHANNELS 3 Zrotation Xrotation Yrotation
								JOINT rhand
								{
									OFFSET 0 0 0
CHANNELS 3 Zrotation Xrotation Yrotation
									JOINT RFingers
									{
OFFSET 0 -0.772520 -0.000000
CHANNELS 3 Zrotation Xrotation Yrotation
										End Site
										{
OFFSET 0 -0.622830 -0.000000
										}
									}
								}
								JOINT RThumb
								{
OFFSET 0 0.000000 0.000000
CHANNELS 3 Zrotation Xrotation Yrotation
									End Site
									{
OFFSET 0 -0.632340 0.632340
									}
								}
							}
						}
					}
				}
			}
		}
	}
}
MOTION
Frames: 6
Frame Time: 0.008333333333333333
18.464400 17.832800 -8.103100 4.484100 -44.144400 -1.574700 0.000000 0.000000 0.000000 -25.498100 -3.870100 -5.066800 1.474400 7.672800 21.724600 0.493200 -8.603400 -13.020700 0.074500 -1.760800 -4.845100 0.000000 0.000000 0.000000 21.345800 5.000500 -9.132500 -3.349300 -11.240100 33.094100 -1.263000 1.598400 -20.781100 -0.033600 -1.184000 3.255300 -4.041100 0.267600 6.910500 -0.160800 -0.005000 -1.130300 2.104500 0.111700 -5.058900 -10.544600 -4.504700 -19.978800 7.730500 -5.505600 27.795000 3.853100 -2.590700 13.188100 0.000000 -0.000000 0.000000 1.448000 2.581200 -32.178100 14.603700 -23.591200 3.065600 15.929300 17.579700 -23.974600 0.000000 0.000000 0.000000 -7.125000 0.000000 0.000000 -14.111900 54.241200 3.254300 0.000000 -0.000000 0.000000 0.192900 3.812100 19.762100 -15.152100 -24.357500 -3.288400 -15.554500 5.747800 -7.689600 0.000000 0.000000 0.000000 7.125000 0.000000 -0.000000 8.193600 22.029500 4.567900
18.363807 17.791578 -8.129975 3.910895 -43.903889 -1.399012 0.000000 0.000000 0.000000 -24.823371 -4.999996 -5.296128 1.748645 8.321346 23.694694 0.551014 -7.998697 -13.532740 0.102801 -2.062839 -5.679533 0.000000 0.000000 0.000000 22.028236 4.258894 -8.491978 -3.235819 -11.067319 32.507354 -1.308196 2.478454 -20.949702 -0.022547 -0.966157 2.655692 -3.162091 0.438816 6.955071 -0.258526 0.299109 -0.836984 1.475587 0.227738 -4.789648 -10.515223 -4.558999 -19.450680 7.465844 -5.671329 28.966385 3.748393 -2.730008 13.577174 0.000000 0.000000 0.000000 2.007608 2.916346 -30.848609 15.066543 -24.238718 3.253202 17.307917 18.949073 -23.989526 0.000000 0.000000 0.000000 -7.125000 0.000000 0.000000 -12.728718 54.518020 3.013623 0.000000 0.000000 0.000000 0.435330 4.247002 20.238379 -15.422043 -24.730716 -3.400548 -14.814705 4.655613 -9.301894 0.000000 0.000000 0.000000 7.125000 0.000000 0.000000 8.677992 20.414617 5.164731
18.244449 17.758533 -8.170748 1.838045 -44.083918 -0.728011 0.000000 0.000000 0.000000 -23.027728 -6.619064 -6.375079 2.514438 9.863900 28.537269 0.645872 -6.141533 -14.341499 0.183342 -2.757719 -7.604919 0.000000 0.000000 0.000000 24.146185 3.272148 -6.884404 -2.936015 -10.590648 30.911441 -1.291199 3.335842 -20.640568 -0.025670 -1.032699 2.838943 -1.526783 0.705566 7.861995 0.244014 0.806029 -0.373139 1.015965 0.438658 -4.824827 -10.658479 -4.582770 -18.824199 6.957935 -5.612747 29.601838 3.599170 -2.814488 13.696254 0.000000 0.000000 0.000000 2.402132 3.688637 -30.400416 15.998783 -25.518955 3.645446 16.199886 16.716014 -25.463489 0.000000 0.000000 0.000000 -7.125000 0.000000 0.000000 -14.586274 55.756403 3.910015 0.000000 0.000000 0.000000 0.146955 4.269757 20.657839 -15.477399 -24.806935 -3.423712 -14.682416 4.303671 -9.118429 0.000000 0.000000 0.000000 7.125000 0.000000 0.000000 8.777740 20.608505 5.186752
18.136459 17.775668 -8.232773 0.393426 -43.261862 0.175671 0.000000 0.000000 0.000000 -20.962120 -7.945215 -12.261601 4.532366 12.834442 38.756084 0.342429 -7.348716 -10.882422 0.200986 -2.880474 -7.946510 0.000000 0.000000 0.000000 25.686754 2.037863 -5.775380 -2.523132 -9.879663 28.588111 -1.199743 3.633338 -19.819343 -0.048030 -1.414522 3.890125 -0.369933 0.838839 8.973992 0.685655 1.108496 -0.143828 0.774608 0.563139 -5.207334 -10.807419 -4.717144 -18.278677 6.797733 -5.782641 29.773207 3.538455 -2.939571 13.673378 0.000000 0.000000 0.000000 2.648986 4.037574 -30.014032 16.126036 -25.691285 3.700444 19.462077 16.022011 -22.948566 0.000000 0.000000 0.000000 -7.125000 0.000000 0.000000 -10.090944 53.881470 2.220192 0.000000 0.000000 0.000000 -0.267116 4.100330 20.771339 -15.768326 -25.205485 -3.546721 -14.321347 3.482692 -9.054326 0.000000 0.000000 0.000000 7.125000 0.000000 0.000000 9.038003 20.691417 5.327331
17.986227 17.804020 -8.205764 -2.368899 -43.187318 1.300090 0.000000 0.000000 0.000000 -17.626116 -8.779564 -18.050387 6.616498 15.000254 47.408430 0.228622 -8.194187 -9.581991 0.372817 -3.916139 -10.841487 0.000000 0.000000 0.000000 28.264295 0.527338 -3.032038 -1.951434 -8.764193 25.060469 -1.072241 3.495726 -18.717205 -0.016451 -0.821656 2.258384 2.140411 1.234716 10.157267 1.222212 1.930322 0.722608 -0.203867 0.911022 -4.914628 -10.823924 -4.826975 -18.008809 6.935318 -5.977482 29.402880 3.556529 -3.001165 13.485635 0.000000 0.000000 0.000000 2.511193 3.978774 -27.319337 16.335142 -25.973017 3.791518 15.507684 17.526309 -25.038602 0.000000 0.000000 0.000000 -7.125000 0.000000 0.000000 -15.068063 55.203855 3.838534 0.000000 0.000000 0.000000 -0.486709 3.226548 21.455043 -16.263244 -25.876311 -3.760085 -14.733947 1.379722 -8.469945 0.000000 0.000000 0.000000 7.125000 0.000000 0.000000 8.760881 21.267333 5.044646
17.741336 17.840269 -8.069656 -2.658606 -43.732783 1.463635 0.000000 0.000000 0.000000 -16.716232 -8.913748 -21.337287 5.518222 13.943447 43.013771 0.442151 -4.978436 -11.850200 0.763539 -5.580163 -15.570952 0.000000 0.000000 0.000000 28.877772 0.190632 -0.333012 -1.504806 -7.747631 21.950240 -0.992192 3.251163 -18.015850 -0.024759 -1.006826 2.767535 1.958224 1.381014 12.242568 1.437893 2.220899 -0.583487 0.008531 1.029223 -7.483524 -10.455093 -4.225583 -16.271041 6.491971 -5.409051 30.829870 3.464227 -2.845882 13.622790 0.000000 0.000000 0.000000 2.304435 8.187330 -25.385448 16.293671 -25.917187 3.773416 17.357709 16.249740 -23.857438 0.000000 0.000000 0.000000 -7.125000 0.000000 0.000000 -12.617169 54.396023 2.948579 0.000000 0.000000 0.000000 -0.871609 5.298314 23.690614 -16.507331 -26.203589 -3.867342 -14.453452 1.415267 -8.097387 0.000000 0.000000 0.000000 7.125000 0.000000 0.000000 8.976248 21.659406 5.090869
